# Blender 4.1.1
# www.blender.org
mtllib miiii.blend.mtl
o Cube
v 1.000000 1.000000 -1.000000
v 1.000000 -1.000000 -1.000000
v 1.000000 1.000000 1.000000
v 1.000000 -1.000000 1.000000
v -1.000000 1.000000 -1.000000
v -1.000000 -1.000000 -1.000000
v -1.000000 1.000000 1.000000
v -1.000000 -1.000000 1.000000
v -1.000000 -1.000000 -1.000000
v -1.000000 -1.000000 1.000000
v 1.000000 -1.000000 -1.000000
v 1.000000 -1.000000 1.000000
v 0.000000 -1.000000 -1.000000
v 0.000000 1.000000 1.000000
v 0.000000 -1.000000 1.000000
v 0.000000 1.000000 -1.000000
v 0.000000 -1.000000 -1.000000
v 0.000000 -1.000000 1.000000
v 0.126599 -1.000000 -0.873401
v 0.873401 -1.000000 -0.873401
v 0.873401 -1.000000 0.873401
v 0.126599 -1.000000 0.873401
v -0.873401 -1.000000 -0.873401
v -0.126599 -1.000000 -0.873401
v -0.126599 -1.000000 0.873401
v -0.873401 -1.000000 0.873401
v 0.873401 -2.970159 -0.873401
v 0.126599 -2.970159 -0.873401
v 0.126599 -2.970159 0.873401
v 0.873401 -2.970159 0.873401
v -0.126599 -2.970159 -0.873401
v -0.873401 -2.970159 -0.873401
v -0.873401 -2.970159 0.873401
v -0.126599 -2.970159 0.873401
v 1.000000 0.333333 -1.000000
v 1.000000 -0.333333 -1.000000
v -1.000000 -0.333333 1.000000
v -1.000000 0.333333 1.000000
v 1.000000 0.333333 1.000000
v 1.000000 -0.333333 1.000000
v -1.000000 0.333333 -1.000000
v -1.000000 -0.333333 -1.000000
v 0.000000 0.333333 -1.000000
v 0.000000 -0.333333 -1.000000
v 0.000000 0.333333 1.000000
v 0.000000 -0.333333 1.000000
v -1.000000 -1.000000 -0.333333
v -1.000000 -1.000000 0.333333
v 1.000000 1.000000 -0.333333
v 1.000000 1.000000 0.333333
v -1.000000 1.000000 0.333333
v -1.000000 1.000000 -0.333333
v 1.000000 -1.000000 0.333333
v 1.000000 -1.000000 -0.333333
v -1.000000 -1.000000 -0.333333
v -1.000000 -1.000000 0.333333
v 1.000000 -1.000000 0.333333
v 1.000000 -1.000000 -0.333333
v 0.000000 -1.000000 -0.333333
v 0.000000 -1.000000 0.333333
v 0.126599 -1.000000 -0.291134
v 0.126599 -1.000000 0.291134
v 0.873401 -1.000000 0.291134
v 0.873401 -1.000000 -0.291134
v -0.873401 -1.000000 -0.291134
v -0.873401 -1.000000 0.291134
v -0.126599 -1.000000 -0.291134
v -0.126599 -1.000000 0.291134
v 0.126599 -2.970159 -0.291134
v 0.126599 -2.970159 0.291134
v 0.873401 -2.970159 0.291134
v 0.873401 -2.970159 -0.291134
v -0.873401 -2.970159 -0.291134
v -0.873401 -2.970159 0.291134
v -0.126599 -2.970159 -0.291134
v -0.126599 -2.970159 0.291134
v 1.000000 -0.333333 -0.333333
v 1.000000 -0.333333 0.333333
v 1.000000 0.333333 -0.333333
v 1.000000 0.333333 0.333333
v -1.000000 -0.333333 0.333333
v -1.000000 -0.333333 -0.333333
v -1.000000 0.333333 0.333333
v -1.000000 0.333333 -0.333333
v 2.599154 -0.333333 -0.333333
v 2.599154 -0.333333 0.333333
v 2.599154 0.333333 -0.333333
v 2.599154 0.333333 0.333333
v -2.599154 -0.333333 0.333333
v -2.599154 -0.333333 -0.333333
v -2.599154 0.333333 0.333333
v -2.599154 0.333333 -0.333333
v -0.824499 1.148825 0.333333
v -0.824499 1.148825 0.824499
v 0.000000 1.148825 0.824499
v 0.824499 1.148825 0.824499
v 0.824499 1.148825 0.333333
v 0.824499 1.148825 -0.333333
v 0.824499 1.148825 -0.824499
v 0.000000 1.148825 -0.824499
v -0.824499 1.148825 -0.824499
v -0.824499 1.148825 -0.333333
v -0.593124 1.368519 0.593124
v -0.593124 1.368519 0.239792
v -0.593124 1.368519 -0.239792
v 0.000000 1.368519 0.593124
v 0.593124 1.368519 0.593124
v 0.593124 1.368519 0.239792
v 0.593124 1.368519 -0.239792
v 0.593124 1.368519 -0.593124
v 0.000000 1.368519 -0.593124
v -0.593124 1.368519 -0.593124
v -0.593124 2.495336 0.593124
v -0.593124 2.495336 0.239792
v -0.593124 2.495336 -0.239792
v 0.000000 2.495336 0.593124
v 0.593124 2.495336 0.593124
v 0.593124 2.495336 0.239792
v 0.593124 2.495336 -0.239792
v 0.593124 2.495336 -0.593124
v 0.000000 2.495336 -0.593124
v -0.593124 2.495336 -0.593124
v 3.166204 -0.595038 -0.595038
v 3.166204 -0.595038 0.595038
v 3.166204 0.595038 -0.595038
v 3.166204 0.595038 0.595038
v -3.246513 -0.525325 0.525325
v -3.246513 -0.525325 -0.525325
v -3.246513 0.525325 0.525325
v -3.246513 0.525325 -0.525325
vn -0.0000 -0.0000 1.0000
vn -1.0000 -0.0000 -0.0000
vn -0.0000 1.0000 -0.0000
vn 1.0000 -0.0000 -0.0000
vn -0.0000 -0.0000 -1.0000
vn -0.0000 -1.0000 -0.0000
vn 0.6886 0.7252 -0.0000
vn 0.2843 -0.0000 -0.9587
vn -0.4190 -0.9080 -0.0000
vn -0.6468 0.7627 -0.0000
vn -0.0000 0.7627 0.6468
vn 0.6468 0.7627 -0.0000
vn -0.0000 0.7627 -0.6468
vn -0.0000 0.7252 0.6886
vn -0.6886 0.7252 -0.0000
vn -0.0000 0.7252 -0.6886
vn -0.4190 -0.0000 0.9080
vn -0.4190 0.9080 -0.0000
vn -0.4190 -0.0000 -0.9080
vn 0.2843 0.9587 -0.0000
vn 0.2843 -0.0000 0.9587
vn 0.2843 -0.9587 -0.0000
vt 0.541667 0.875000
vt 0.625000 0.875000
vt 0.625000 1.000000
vt 0.541667 1.000000
vt 0.541667 0.166667
vt 0.625000 0.166667
vt 0.625000 0.250000
vt 0.541667 0.250000
vt 0.375000 0.375000
vt 0.375000 0.500000
vt 0.541667 0.666667
vt 0.625000 0.666667
vt 0.625000 0.750000
vt 0.541667 0.750000
vt 0.541667 0.375000
vt 0.625000 0.375000
vt 0.625000 0.500000
vt 0.541667 0.500000
vt 0.265825 0.588608
vt 0.265825 0.515825
vt 0.375000 0.875000
vt 0.375000 1.000000
vt 0.375000 0.166667
vt 0.375000 0.250000
vt 0.375000 0.666667
vt 0.375000 0.750000
vt 0.359175 0.734175
vt 0.265825 0.734175
vt 0.250000 0.500000
vt 0.359175 0.515825
vt 0.359175 0.661392
vt 0.250000 0.750000
vt 0.250000 0.583333
vt 0.125000 0.500000
vt 0.234175 0.515825
vt 0.140825 0.515825
vt 0.250000 0.666667
vt 0.234175 0.734175
vt 0.234175 0.661392
vt 0.125000 0.750000
vt 0.140825 0.734175
vt 0.125000 0.583333
vt 0.140825 0.588608
vt 0.265825 0.661392
vt 0.359175 0.661392
vt 0.140825 0.661392
vt 0.234175 0.661392
vt 0.140825 0.588608
vt 0.458333 0.750000
vt 0.458333 0.875000
vt 0.458333 0.250000
vt 0.458333 0.375000
vt 0.458333 0.500000
vt 0.458333 0.666667
vt 0.458333 0.166667
vt 0.458333 1.000000
vt 0.458333 0.000000
vt 0.541667 0.000000
vt 0.541667 0.083333
vt 0.458333 0.083333
vt 0.375000 0.000000
vt 0.375000 0.083333
vt 0.541667 0.583333
vt 0.458333 0.583333
vt 0.375000 0.583333
vt 0.359175 0.588608
vt 0.234175 0.588608
vt 0.125000 0.666667
vt 0.265825 0.661392
vt 0.625000 0.583333
vt 0.625000 0.000000
vt 0.625000 0.083333
vt 0.646938 0.583333
vt 0.646938 0.521938
vt 0.875000 0.666667
vt 0.875000 0.750000
vt 0.853062 0.728062
vt 0.853062 0.666667
vt 0.750000 0.750000
vt 0.750000 0.728062
vt 0.646938 0.728062
vt 0.646938 0.666667
vt 0.750000 0.500000
vt 0.750000 0.521938
vt 0.875000 0.500000
vt 0.853062 0.521938
vt 0.875000 0.583333
vt 0.853062 0.583333
s 0
usemtl Material
f 45/1/1 14/2/1 7/3/1 38/4/1
f 84/5/2 52/6/2 5/7/2 41/8/2
f 13/9/3 2/10/3 11/10/3 17/9/3
f 80/11/4 50/12/4 3/13/4 39/14/4
f 43/15/5 16/16/5 1/17/5 35/18/5
f 61/19/2 19/20/2 28/20/2 69/19/2
f 15/21/3 8/22/3 10/22/3 18/21/3
f 47/23/3 6/24/3 9/24/3 55/23/3
f 53/25/3 4/26/3 12/26/3 57/25/3
f 4/26/3 15/21/3 18/21/3 12/26/3
f 21/27/1 22/28/1 29/28/1 30/27/1
f 41/8/5 5/7/5 16/16/5 43/15/5
f 6/24/3 13/9/3 17/9/3 9/24/3
f 39/14/1 3/13/1 14/2/1 45/1/1
f 17/29/6 11/10/6 20/30/6 19/20/6
f 57/25/6 12/26/6 21/27/6 63/31/6
f 12/26/6 18/32/6 22/28/6 21/27/6
f 59/33/6 17/29/6 19/20/6 61/19/6
f 9/34/6 17/29/6 24/35/6 23/36/6
f 60/37/6 18/32/6 25/38/6 68/39/6
f 18/32/6 10/40/6 26/41/6 25/38/6
f 55/42/6 9/34/6 23/36/6 65/43/6
f 70/44/6 71/45/6 30/27/6 29/28/6
f 74/46/6 76/47/6 34/38/6 33/41/6
f 68/39/4 25/38/4 34/38/4 76/47/4
f 23/36/5 24/35/5 31/35/5 32/36/5
f 63/31/4 21/27/4 30/27/4 71/45/4
f 25/38/1 26/41/1 33/41/1 34/38/1
f 19/20/5 20/30/5 27/30/5 28/20/5
f 65/43/2 23/36/2 32/36/2 73/48/2
f 4/26/1 40/49/1 46/50/1 15/21/1
f 40/49/1 39/14/1 45/1/1 46/50/1
f 6/24/5 42/51/5 44/52/5 13/9/5
f 42/51/5 41/8/5 43/15/5 44/52/5
f 13/9/5 44/52/5 36/53/5 2/10/5
f 44/52/5 43/15/5 35/18/5 36/53/5
f 53/25/4 78/54/4 40/49/4 4/26/4
f 78/54/4 80/11/4 39/14/4 40/49/4
f 47/23/2 82/55/2 42/51/2 6/24/2
f 82/55/2 84/5/2 41/8/2 42/51/2
f 15/21/1 46/50/1 37/56/1 8/22/1
f 46/50/1 45/1/1 38/4/1 37/56/1
f 37/57/2 38/58/2 83/59/2 81/60/2
f 83/59/3 84/5/3 92/5/3 91/59/3
f 8/61/2 37/57/2 81/60/2 48/62/2
f 48/62/2 81/60/2 82/55/2 47/23/2
f 36/53/4 35/18/4 79/63/4 77/64/4
f 84/5/5 82/55/5 90/55/5 92/5/5
f 2/10/4 36/53/4 77/64/4 54/65/4
f 54/65/4 77/64/4 78/54/4 53/25/4
f 26/41/2 66/46/2 74/46/2 33/41/2
f 66/46/2 65/43/2 73/48/2 74/46/2
f 20/30/4 64/66/4 72/66/4 27/30/4
f 64/66/4 63/31/4 71/45/4 72/66/4
f 24/35/4 67/67/4 75/67/4 31/35/4
f 67/67/4 68/39/4 76/47/4 75/67/4
f 32/36/6 31/35/6 75/67/6 73/48/6
f 73/48/6 75/67/6 76/47/6 74/46/6
f 28/20/6 27/30/6 72/66/6 69/19/6
f 69/19/6 72/66/6 71/45/6 70/44/6
f 10/40/6 56/68/6 66/46/6 26/41/6
f 56/68/6 55/42/6 65/43/6 66/46/6
f 17/29/6 59/33/6 67/67/6 24/35/6
f 59/33/6 60/37/6 68/39/6 67/67/6
f 18/32/6 60/37/6 62/69/6 22/28/6
f 60/37/6 59/33/6 61/19/6 62/69/6
f 11/10/6 58/65/6 64/66/6 20/30/6
f 58/65/6 57/25/6 63/31/6 64/66/6
f 2/10/3 54/65/3 58/65/3 11/10/3
f 54/65/3 53/25/3 57/25/3 58/65/3
f 8/61/3 48/62/3 56/62/3 10/61/3
f 48/62/3 47/23/3 55/23/3 56/62/3
f 22/28/2 62/69/2 70/44/2 29/28/2
f 62/69/2 61/19/2 69/19/2 70/44/2
f 35/18/4 1/17/4 49/70/4 79/63/4
f 79/63/4 49/70/4 50/12/4 80/11/4
f 38/58/2 7/71/2 51/72/2 83/59/2
f 83/59/2 51/72/2 52/6/2 84/5/2
f 98/73/7 99/74/7 110/74/7 109/73/7
f 92/5/8 90/55/8 128/55/8 130/5/8
f 86/54/9 85/64/9 123/64/9 124/54/9
f 82/55/6 81/60/6 89/60/6 90/55/6
f 79/63/3 80/11/3 88/11/3 87/63/3
f 77/64/5 79/63/5 87/63/5 85/64/5
f 78/54/6 77/64/6 85/64/6 86/54/6
f 81/60/1 83/59/1 91/59/1 89/60/1
f 80/11/1 78/54/1 86/54/1 88/11/1
f 51/75/10 7/76/10 94/77/10 93/78/10
f 7/76/11 14/79/11 95/80/11 94/77/11
f 14/79/11 3/13/11 96/81/11 95/80/11
f 3/13/12 50/12/12 97/82/12 96/81/12
f 50/12/12 49/70/12 98/73/12 97/82/12
f 49/70/12 1/17/12 99/74/12 98/73/12
f 1/17/13 16/83/13 100/84/13 99/74/13
f 16/83/13 5/85/13 101/86/13 100/84/13
f 5/85/10 52/87/10 102/88/10 101/86/10
f 52/87/10 51/75/10 93/78/10 102/88/10
f 106/80/1 107/81/1 117/81/1 116/80/1
f 95/80/14 96/81/14 107/81/14 106/80/14
f 93/78/15 94/77/15 103/77/15 104/78/15
f 99/74/16 100/84/16 111/84/16 110/74/16
f 96/81/7 97/82/7 108/82/7 107/81/7
f 102/88/15 93/78/15 104/78/15 105/88/15
f 100/84/16 101/86/16 112/86/16 111/84/16
f 97/82/7 98/73/7 109/73/7 108/82/7
f 94/77/14 95/80/14 106/80/14 103/77/14
f 101/86/15 102/88/15 105/88/15 112/86/15
f 114/78/3 113/77/3 116/80/3 117/81/3 118/82/3 119/73/3 120/74/3 121/84/3 122/86/3 115/88/3
f 104/78/2 103/77/2 113/77/2 114/78/2
f 110/74/5 111/84/5 121/84/5 120/74/5
f 107/81/4 108/82/4 118/82/4 117/81/4
f 105/88/2 104/78/2 114/78/2 115/88/2
f 111/84/5 112/86/5 122/86/5 121/84/5
f 108/82/4 109/73/4 119/73/4 118/82/4
f 103/77/1 106/80/1 116/80/1 113/77/1
f 112/86/2 105/88/2 115/88/2 122/86/2
f 109/73/4 110/74/4 120/74/4 119/73/4
f 123/64/4 125/63/4 126/11/4 124/54/4
f 88/11/17 86/54/17 124/54/17 126/11/17
f 87/63/18 88/11/18 126/11/18 125/63/18
f 85/64/19 87/63/19 125/63/19 123/64/19
f 127/60/2 129/59/2 130/5/2 128/55/2
f 91/59/20 92/5/20 130/5/20 129/59/20
f 89/60/21 91/59/21 129/59/21 127/60/21
f 90/55/22 89/60/22 127/60/22 128/55/22
